<svg width="48" height="48" viewBox="0 0 48 48" fill="none" xmlns="http://www.w3.org/2000/svg">
<g clip-path="url(#clip0_21_1772)">
<path d="M44 8.01807C42 8.99807 40.04 9.39607 38 9.99807C35.758 7.46807 32.434 7.32807 29.24 8.52407C26.046 9.72007 23.954 12.6441 24 15.9981V17.9981C17.51 18.1641 11.73 15.2081 8 9.99807C8 9.99807 -0.364 24.8641 16 31.9981C12.256 34.4921 8.522 36.1741 4 35.9981C10.616 39.6041 17.826 40.8441 24.068 39.0321C31.228 36.9521 37.112 31.5861 39.37 23.5481C40.0436 21.1034 40.378 18.5778 40.364 16.0421C40.364 15.5441 43.384 10.4981 44 8.01607V8.01807Z" stroke="#548F2F" stroke-width="4" stroke-linecap="round" stroke-linejoin="round"/>
</g>
<defs>
<clipPath id="clip0_21_1772">
<rect width="48" height="48" fill="white"/>
</clipPath>
</defs>
</svg>
