<svg width="48" height="48" viewBox="0 0 48 48" fill="none" xmlns="http://www.w3.org/2000/svg">
<g clip-path="url(#clip0_21_1780)">
<path d="M8 12C8 10.9391 8.42143 9.92172 9.17157 9.17157C9.92172 8.42143 10.9391 8 12 8H36C37.0609 8 38.0783 8.42143 38.8284 9.17157C39.5786 9.92172 40 10.9391 40 12V36C40 37.0609 39.5786 38.0783 38.8284 38.8284C38.0783 39.5786 37.0609 40 36 40H12C10.9391 40 9.92172 39.5786 9.17157 38.8284C8.42143 38.0783 8 37.0609 8 36V12Z" stroke="#548F2F" stroke-width="4" stroke-linecap="round" stroke-linejoin="round"/>
<path d="M16 22V32" stroke="#548F2F" stroke-width="4" stroke-linecap="round" stroke-linejoin="round"/>
<path d="M16 16V16.02" stroke="#548F2F" stroke-width="4" stroke-linecap="round" stroke-linejoin="round"/>
<path d="M24 32V22" stroke="#548F2F" stroke-width="4" stroke-linecap="round" stroke-linejoin="round"/>
<path d="M32 32V26C32 24.9391 31.5786 23.9217 30.8284 23.1716C30.0783 22.4214 29.0609 22 28 22C26.9391 22 25.9217 22.4214 25.1716 23.1716C24.4214 23.9217 24 24.9391 24 26" stroke="#548F2F" stroke-width="4" stroke-linecap="round" stroke-linejoin="round"/>
</g>
<defs>
<clipPath id="clip0_21_1780">
<rect width="48" height="48" fill="white"/>
</clipPath>
</defs>
</svg>
